<svg xmlns="http://www.w3.org/2000/svg" viewBox="0 0 195.05 195.05"><defs><style>.cls-1{fill:#ffbf3c;}.cls-2{fill:#231f20;}.cls-3{fill:#fff;}</style></defs><g id="Layer_2" data-name="Layer 2"><g id="Layer_1-2" data-name="Layer 1"><circle class="cls-1" cx="97.52" cy="97.52" r="97.52" transform="translate(-1.61 193.41) rotate(-89.05)"/><path class="cls-2" d="M56.65,76.35A16.66,16.66,0,1,1,40,59.69,16.66,16.66,0,0,1,56.65,76.35Z"/><path class="cls-3" d="M43,73.72a7.37,7.37,0,1,1-7.37-7.37A7.36,7.36,0,0,1,43,73.72Z"/><path class="cls-2" d="M170.48,76.35a16.66,16.66,0,1,1-16.66-16.66A16.66,16.66,0,0,1,170.48,76.35Z"/><path class="cls-3" d="M156.8,73.72a7.37,7.37,0,1,1-7.36-7.37A7.36,7.36,0,0,1,156.8,73.72Z"/><path class="cls-2" d="M133.07,146.62c-10.19,0-17.76-6.23-25.18-12.34-7.89-6.5-16-13.23-27.9-13.24h-.08C59,121,53,135.33,50.51,141.44c-.7,1.69-1.06,2.54-1.79,3.17A2.62,2.62,0,0,1,45,140.92c.14-.27.42-.94.65-1.49,2.42-5.84,9.79-23.62,34.24-23.62H80c13.72,0,23,7.67,31.21,14.43,12.73,10.48,22.79,18.77,45.93,0a2.62,2.62,0,0,1,3.29,4.07C149.29,143.32,140.49,146.62,133.07,146.62Zm-87.76-6h0Z"/><path d="M17.8,20.78a6.68,6.68,0,0,1,2-3.2,9,9,0,0,1,4-2.16A11,11,0,0,1,29,15.35a11.38,11.38,0,0,1,4.52,1.92,8,8,0,0,1,2.69,3.25,6.52,6.52,0,0,1,.47,3.86A5.47,5.47,0,0,1,35.55,27a8.29,8.29,0,0,1-1.94,1.73c-.71.45-2,1.2-3.82,2.22-.51.3-.93.56-1.25.79a4.28,4.28,0,0,0-.75.66,4.38,4.38,0,0,0-.44.65c-.12.22-.31.62-.57,1.18a2.18,2.18,0,0,1-2.72,1.41,2.5,2.5,0,0,1-1.58-1,2.37,2.37,0,0,1-.29-2,6.58,6.58,0,0,1,1.07-2.53A7,7,0,0,1,25,28.45c.67-.44,1.55-1,2.64-1.54s1.64-.91,2.07-1.18a5.37,5.37,0,0,0,1.14-1,2.74,2.74,0,0,0,.64-1.31,3.26,3.26,0,0,0-.64-2.68,4.22,4.22,0,0,0-2.65-1.58,4.19,4.19,0,0,0-3.24.36,8.35,8.35,0,0,0-2.3,2.6,2.51,2.51,0,0,1-2.9,1.49,2.48,2.48,0,0,1-1.61-1.13A2.21,2.21,0,0,1,17.8,20.78Zm5,22a3.4,3.4,0,0,1-2-1.18,2.43,2.43,0,0,1-.46-2.19,2.53,2.53,0,0,1,1.29-1.74,3.15,3.15,0,0,1,2.29-.32,3,3,0,0,1,1.92,1.21,2.6,2.6,0,0,1,.47,2.1A2.47,2.47,0,0,1,25,42.45,3.27,3.27,0,0,1,22.79,42.75Z"/><path d="M51.34,27A6.73,6.73,0,0,1,53,23.63a9,9,0,0,1,3.71-2.56,10.93,10.93,0,0,1,5.21-.62,11.3,11.3,0,0,1,4.68,1.45,8,8,0,0,1,3,3,6.69,6.69,0,0,1,.87,3.79,5.61,5.61,0,0,1-.87,2.71,8.45,8.45,0,0,1-1.74,1.92c-.66.52-1.84,1.4-3.56,2.61a13.36,13.36,0,0,0-1.16.9,4.29,4.29,0,0,0-.67.74,3.94,3.94,0,0,0-.38.69c-.09.23-.24.65-.45,1.24a2.15,2.15,0,0,1-2.54,1.68,2.57,2.57,0,0,1-1.67-.82,2.39,2.39,0,0,1-.49-1.94,6.68,6.68,0,0,1,.81-2.62,6.82,6.82,0,0,1,1.56-1.85c.61-.51,1.43-1.11,2.45-1.81S63.26,31,63.65,30.7a5,5,0,0,0,1-1.08,2.81,2.81,0,0,0,.5-1.37,3.23,3.23,0,0,0-.9-2.6,4.22,4.22,0,0,0-2.8-1.3,4.12,4.12,0,0,0-3.16.69,8.47,8.47,0,0,0-2,2.82,2.54,2.54,0,0,1-4.43.83A2.22,2.22,0,0,1,51.34,27Zm7.19,21.33a3.39,3.39,0,0,1-2.08-1,2.46,2.46,0,0,1-.68-2.14,2.52,2.52,0,0,1,1.09-1.86,3.16,3.16,0,0,1,2.24-.56,3,3,0,0,1,2,1,2.59,2.59,0,0,1,.68,2,2.48,2.48,0,0,1-1.11,1.94A3.25,3.25,0,0,1,58.53,48.35Z"/><path d="M85.24,29.76a6.59,6.59,0,0,1,1.25-3.54,9,9,0,0,1,3.42-2.93A10.86,10.86,0,0,1,95,22.14a11.35,11.35,0,0,1,4.79.95,8,8,0,0,1,3.29,2.64,6.56,6.56,0,0,1,1.25,3.67,5.49,5.49,0,0,1-.59,2.79,8.12,8.12,0,0,1-1.53,2.08c-.6.59-1.68,1.59-3.27,3-.44.39-.79.73-1.06,1a4.37,4.37,0,0,0-.59.8,3.51,3.51,0,0,0-.3.73c-.07.24-.18.66-.32,1.27A2.14,2.14,0,0,1,94.34,43a2.47,2.47,0,0,1-1.73-.63,2.37,2.37,0,0,1-.69-1.88,6.56,6.56,0,0,1,.53-2.7,7,7,0,0,1,1.36-2c.56-.58,1.31-1.26,2.25-2.06s1.41-1.22,1.78-1.58A5.47,5.47,0,0,0,98.75,31a2.8,2.8,0,0,0,.35-1.42,3.24,3.24,0,0,0-1.16-2.49,4.24,4.24,0,0,0-2.91-1,4.1,4.1,0,0,0-3.07,1,8.28,8.28,0,0,0-1.72,3,2.51,2.51,0,0,1-2.51,2.05,2.46,2.46,0,0,1-1.8-.78A2.16,2.16,0,0,1,85.24,29.76Zm9.32,20.47a3.35,3.35,0,0,1-2.16-.74,2.46,2.46,0,0,1-.9-2.06,2.54,2.54,0,0,1,.9-2,3.16,3.16,0,0,1,2.16-.79,3,3,0,0,1,2.13.8,2.56,2.56,0,0,1,.87,2,2.47,2.47,0,0,1-.89,2A3.23,3.23,0,0,1,94.56,50.23Z"/><path d="M119.2,29a6.77,6.77,0,0,1,.89-3.65,9,9,0,0,1,3.1-3.26,10.87,10.87,0,0,1,5-1.67,11.41,11.41,0,0,1,4.88.45,8.05,8.05,0,0,1,3.54,2.28,6.56,6.56,0,0,1,1.62,3.53,5.5,5.5,0,0,1-.29,2.83,8.22,8.22,0,0,1-1.32,2.23c-.54.65-1.51,1.75-2.95,3.29a12.18,12.18,0,0,0-1,1.12,4.91,4.91,0,0,0-.51.86,3.81,3.81,0,0,0-.22.76c-.05.24-.11.68-.19,1.29a2.16,2.16,0,0,1-2.15,2.17,2.51,2.51,0,0,1-1.79-.45A2.41,2.41,0,0,1,127,39a6.5,6.5,0,0,1,.25-2.74,6.9,6.9,0,0,1,1.15-2.12c.49-.63,1.18-1.39,2-2.28s1.28-1.36,1.61-1.75a5.42,5.42,0,0,0,.78-1.28,2.72,2.72,0,0,0,.21-1.44A3.26,3.26,0,0,0,131.58,25a4.27,4.27,0,0,0-3-.7,4.08,4.08,0,0,0-2.95,1.33,8.21,8.21,0,0,0-1.4,3.17c-.31,1.44-1.07,2.21-2.29,2.3a2.45,2.45,0,0,1-1.87-.58A2.2,2.2,0,0,1,119.2,29ZM130.59,48.4a3.38,3.38,0,0,1-2.23-.52,2.48,2.48,0,0,1-1.11-2,2.54,2.54,0,0,1,.7-2,3.11,3.11,0,0,1,2.07-1,3,3,0,0,1,2.2.57,2.59,2.59,0,0,1,1.08,1.86,2.48,2.48,0,0,1-.69,2.13A3.23,3.23,0,0,1,130.59,48.4Z"/><path d="M153,24.72a6.57,6.57,0,0,1,.51-3.72,9.12,9.12,0,0,1,2.75-3.57,11.18,11.18,0,0,1,4.8-2.18A11.52,11.52,0,0,1,166,15.2a8,8,0,0,1,3.77,1.9,6.52,6.52,0,0,1,2,3.34,5.56,5.56,0,0,1,0,2.84,8.21,8.21,0,0,1-1.08,2.36q-.7,1.07-2.61,3.58a11.11,11.11,0,0,0-.83,1.22,3.9,3.9,0,0,0-.42.9,3.7,3.7,0,0,0-.15.78c0,.25,0,.69-.05,1.31a2.17,2.17,0,0,1-1.93,2.38,2.53,2.53,0,0,1-1.84-.27,2.37,2.37,0,0,1-1.06-1.7,6.68,6.68,0,0,1,0-2.74,6.94,6.94,0,0,1,.93-2.24c.43-.68,1-1.5,1.79-2.47s1.14-1.49,1.43-1.91a5.59,5.59,0,0,0,.65-1.35,2.68,2.68,0,0,0,.06-1.46,3.23,3.23,0,0,0-1.65-2.2,4.24,4.24,0,0,0-3.07-.38A4.13,4.13,0,0,0,159,20.71,8.32,8.32,0,0,0,158,24a2.51,2.51,0,0,1-2.05,2.52,2.42,2.42,0,0,1-1.93-.39A2.15,2.15,0,0,1,153,24.72Zm13.36,18.13a3.42,3.42,0,0,1-2.28-.28,2.5,2.5,0,0,1-1.31-1.83,2.55,2.55,0,0,1,.49-2.11,3.15,3.15,0,0,1,2-1.21,3.08,3.08,0,0,1,2.26.33,2.61,2.61,0,0,1,1.26,1.74,2.47,2.47,0,0,1-.46,2.19A3.3,3.3,0,0,1,166.34,42.85Z"/></g></g></svg>