<svg xmlns="http://www.w3.org/2000/svg" viewBox="0 0 195.05 195.05"><defs><style>.cls-1{fill:#ffbf3c;}.cls-2{fill:#231f20;}.cls-3{fill:#fff;}</style></defs><g id="Layer_2" data-name="Layer 2"><g id="Layer_1-2" data-name="Layer 1"><circle class="cls-1" cx="97.52" cy="97.52" r="97.52" transform="translate(-27.78 155.15) rotate(-69.7)"/><path class="cls-2" d="M31,105.45S35.91,134.21,57.26,148c15.3,9.89,40.26,9.89,40.26,9.89s25,0,40.26-9.89C159.14,134.21,164,105.45,164,105.45Z"/><path class="cls-3" d="M156.91,125.55a79.37,79.37,0,0,0,7.12-20.1H31a78.86,78.86,0,0,0,7,20.1s24.64,5.91,59.51,6C136.2,131.68,146.49,127.85,156.91,125.55Z"/><path class="cls-2" d="M30.5,82.38a2.9,2.9,0,0,1-.87-5.67L60.7,66.92,29.35,53.37A2.9,2.9,0,0,1,31.65,48L70.14,64.68a2.9,2.9,0,0,1-.27,5.43L31.37,82.24A2.93,2.93,0,0,1,30.5,82.38Z"/><path class="cls-2" d="M164.55,82.38a2.9,2.9,0,0,0,.87-5.67l-31.07-9.79L165.7,53.37A2.9,2.9,0,0,0,163.39,48L124.9,64.68a2.9,2.9,0,0,0,.28,5.43l38.49,12.13A3,3,0,0,0,164.55,82.38Z"/></g></g></svg>