<svg xmlns="http://www.w3.org/2000/svg" viewBox="0 0 481 450"><defs><style>.cls-1{fill:#9cf;}.cls-2{fill:#036;}</style></defs><g id="Layer_2" data-name="Layer 2"><g id="Capa_1" data-name="Capa 1"><polygon class="cls-1" points="228.5 368 252.5 327 305.5 280 328.49 269.9 361.92 300.45 465.5 302 465.5 18 348.5 18 327.5 44 230.5 18 61.5 25.86 54.5 64.13 40.5 88 26.5 108 26.5 135 26.5 166 26.5 186 26.5 244 41.5 266 131.5 275 159.5 276 146.5 349 149.5 417.94 197.5 437 228.5 368"/><path class="cls-2" d="M12.28,208.43A48.08,48.08,0,0,0,48.1,288.6h93.36c-9.25,28.06-13.19,65.29-13.19,81.25v16A64.2,64.2,0,0,0,192.4,450h16A16,16,0,0,0,224,437.86l8.73-34.94C245,354,283.81,300,324,290.18a48.18,48.18,0,0,0,44.75,30.49H465a16,16,0,0,0,16-16V16A16,16,0,0,0,465,0h-96.2a48.14,48.14,0,0,0-43.42,27.42L270.26,9.05a176.18,176.18,0,0,0-55.78-9H80.17A48.13,48.13,0,0,0,35.44,65.82,48.08,48.08,0,0,0,12.28,144.3a48,48,0,0,0,0,64.13ZM352.73,48.1a16.06,16.06,0,0,1,16-16h80.16V288.6H368.77a16.06,16.06,0,0,1-16-16ZM80.17,192.4H48.1a16,16,0,0,1,0-32.07H80.17a16,16,0,1,0,0-32.06H48.1a16,16,0,0,1,0-32.07H80.17a16,16,0,0,0,0-32.07,16,16,0,1,1,0-32.06H214.48a144.17,144.17,0,0,1,45.64,7.4l60.55,20.18v198.4c-25.15,4.78-49.77,20.71-72,46.78-21.7,25.46-39.3,59.21-47.07,90.31l-5.69,22.8H192.4a32.11,32.11,0,0,1-32.07-32.07v-16c0-21.53,6.74-62.82,15.35-81.25h32.75a16,16,0,1,0,0-32.07H48.1a16,16,0,0,1,0-32.06H80.17a16,16,0,0,0,0-32.07Z"/><circle class="cls-2" cx="400.83" cy="80.17" r="16.03"/></g></g></svg>