<svg xmlns="http://www.w3.org/2000/svg" viewBox="0 0 195.05 195.05"><defs><style>.cls-1{fill:#ffbf3c;}.cls-2{fill:#231f20;}.cls-3{fill:#fff;}</style></defs><g id="Layer_2" data-name="Layer 2"><g id="Layer_1-2" data-name="Layer 1"><circle class="cls-1" cx="97.52" cy="97.52" r="97.52" transform="translate(-3.97 190.91) rotate(-87.62)"/><path class="cls-2" d="M39.69,43c3.56-.83,10.42-.48,12.21-2,1.33-1.11,1-3.67.27-5.07s-5.05-3.67-15.49-1.21c-4.41,1-17.64,6.64-13.85,12.31C26.14,52,30.81,45.05,39.69,43Z"/><path class="cls-2" d="M155.36,43c-3.56-.83-10.42-.48-12.22-2-1.32-1.11-1-3.67-.26-5.07s5.05-3.67,15.49-1.21c4.41,1,17.64,6.64,13.84,12.31C168.91,52,164.23,45.05,155.36,43Z"/><path class="cls-2" d="M57.26,75.71A16.66,16.66,0,1,1,40.61,59.06,16.65,16.65,0,0,1,57.26,75.71Z"/><path class="cls-3" d="M43.59,73.08a7.37,7.37,0,1,1-7.37-7.36A7.37,7.37,0,0,1,43.59,73.08Z"/><path class="cls-2" d="M171.1,75.71a16.66,16.66,0,1,1-16.66-16.65A16.66,16.66,0,0,1,171.1,75.71Z"/><path class="cls-3" d="M157.42,73.08a7.37,7.37,0,1,1-7.36-7.36A7.37,7.37,0,0,1,157.42,73.08Z"/><path class="cls-2" d="M130.39,132.13A33.59,33.59,0,0,0,97.52,107.4c-16,.32-29.7,13-32.87,24.73s8,20.62,32.87,19.89C122.43,152.75,133.54,143.81,130.39,132.13Z"/></g></g></svg>