<svg xmlns="http://www.w3.org/2000/svg" viewBox="0 0 481 450"><defs><style>.cls-1{fill:#9cf;}.cls-2{fill:#036;}</style></defs><g id="Layer_2" data-name="Layer 2"><g id="Capa_1" data-name="Capa 1"><polygon class="cls-1" points="252.5 82 228.5 123 175.5 170 152.51 180.1 119.08 149.55 15.5 148 15.5 432 132.5 432 153.5 406 250.5 432 419.5 424.15 426.5 385.87 440.5 362 454.5 342 454.5 315 454.5 284 454.5 264 454.5 206 439.5 184 349.5 175 321.5 174 334.5 101 331.5 32.07 283.5 13 252.5 82"/><path class="cls-2" d="M468.72,241.57A48.08,48.08,0,0,0,432.9,161.4H339.54c9.25-28.06,13.19-65.29,13.19-81.24v-16A64.2,64.2,0,0,0,288.6,0h-16A16,16,0,0,0,257,12.14l-8.73,34.94C236,96,197.19,150,157,159.82a48.17,48.17,0,0,0-44.75-30.48H16a16,16,0,0,0-16,16V434a16,16,0,0,0,16,16h96.2a48.15,48.15,0,0,0,43.42-27.41L210.74,441A175.9,175.9,0,0,0,266.52,450H400.83a48.13,48.13,0,0,0,44.73-65.82,48.08,48.08,0,0,0,23.16-78.48,48,48,0,0,0,0-64.13ZM128.27,401.9a16.06,16.06,0,0,1-16,16H32.07V161.4h80.16a16.06,16.06,0,0,1,16,16ZM400.83,257.6H432.9a16,16,0,0,1,0,32.07H400.83a16,16,0,0,0,0,32.07H432.9a16,16,0,1,1,0,32.06H400.83a16,16,0,0,0,0,32.07,16,16,0,1,1,0,32.07H266.52a143.9,143.9,0,0,1-45.64-7.41l-60.55-20.18V192c25.15-4.78,49.77-20.7,72-46.77C254,119.72,271.62,86,279.39,54.87l5.69-22.8h3.52a32.1,32.1,0,0,1,32.07,32.06v16c0,21.52-6.74,62.81-15.35,81.24H272.57a16,16,0,1,0,0,32.07H432.9a16,16,0,0,1,0,32.07H400.83a16,16,0,1,0,0,32.06Z"/><circle class="cls-2" cx="80.17" cy="369.84" r="16.03"/></g></g></svg>